<svg xmlns="http://www.w3.org/2000/svg" width="138" height="138" viewBox="0 0 138 138">
  <g id="Grupo_895216" data-name="Grupo 895216" transform="translate(-735.065 -2736)">
    <rect id="background" width="138" height="138" rx="69" transform="translate(735.065 2736)" fill="#0fb4f6"/>
    <path id="Trazado_688363" data-name="Trazado 688363" d="M81.225,97.607,87.8,90.033a87.583,87.583,0,0,0,7.59-8.351,25.584,25.584,0,0,0,3.481-5.975,15.854,15.854,0,0,0,1.113-5.849q0-7.12-4.454-10.93T82.832,55.11a19.328,19.328,0,0,0-9.268,2.266,16.411,16.411,0,0,0-6.492,6.194A16.709,16.709,0,0,0,64.72,72.2H76.513a9.409,9.409,0,0,1,1.678-5.724,5.583,5.583,0,0,1,8.523-.572,7.632,7.632,0,0,1,1.427,4.995q0,4.046-6.037,10.93L65.724,99v7.684H101.2v-9.08Z" transform="translate(721.091 2724.549)" fill="#fff"/>
  </g>
</svg>
