<svg xmlns="http://www.w3.org/2000/svg" width="138" height="138" viewBox="0 0 138 138">
  <g id="Grupo_895217" data-name="Grupo 895217" transform="translate(-1151.065 -2736)">
    <rect id="background" width="138" height="138" rx="69" transform="translate(1151.065 2736)" fill="#0fb4f6"/>
    <path id="Trazado_688364" data-name="Trazado 688364" d="M98.936,84.623a13.486,13.486,0,0,0-6.273-4.4,14.169,14.169,0,0,0,5.771-4.7,10.64,10.64,0,0,0,1.984-6.116,12.722,12.722,0,0,0-4.791-10.515q-4.791-3.826-13.165-3.779a20.888,20.888,0,0,0-8.625,1.741,14.49,14.49,0,0,0-6.116,4.838,11.871,11.871,0,0,0-2.211,7.057H77.154a4.093,4.093,0,0,1,1.709-3.34,6.273,6.273,0,0,1,4.015-1.349,5.889,5.889,0,0,1,4.375,1.568,5.528,5.528,0,0,1,1.568,4.054q0,6.375-6.516,6.375H76.817v8.625H82.47a7.912,7.912,0,0,1,5.238,1.568q1.9,1.568,1.9,5.371a5.708,5.708,0,0,1-1.827,4.36,6.876,6.876,0,0,1-4.893,1.709,6.571,6.571,0,0,1-4.61-1.647,5.214,5.214,0,0,1-1.858-3.991H64.75a13.541,13.541,0,0,0,2.172,7.559,14.349,14.349,0,0,0,6.39,5.206,22.339,22.339,0,0,0,9.15,1.874q8.405,0,13.58-4.03a12.961,12.961,0,0,0,5.167-10.781,11.573,11.573,0,0,0-2.274-7.253Z" transform="translate(1137.085 2723.619)" fill="#fff"/>
  </g>
</svg>
